<svg xmlns="http://www.w3.org/2000/svg" width="49.25" height="46.656" viewBox="0 0 49.25 46.656">
  <path id="Path_62" data-name="Path 62" d="M15,2.969A.879.879,0,0,0,14.906,3h-.344l-.125.156a.473.473,0,0,0-.062.063l-.031.031a.466.466,0,0,0-.062.031v.031a.945.945,0,0,0-.125.125L.969,17.313l-.594.625.531.688L23.969,48.313a1,1,0,0,0,.594.719l.438.594L25.469,49a1,1,0,0,0,.563-.719V48.25L49.094,18.625l.531-.687-.594-.625L35.875,3.5a.472.472,0,0,0-.062-.062V3.406a.532.532,0,0,0-.094-.094l-.031-.062a.954.954,0,0,0-.156-.125L35.438,3h-.281a.578.578,0,0,0-.375,0H15.094A.879.879,0,0,0,15,2.969ZM15.813,5h6.906l-9,9.719ZM27.281,5h6.906l2.094,9.688ZM25,5.469,35.719,17H14.25ZM36.719,7.25,45.969,17H38.781Zm-23.437.031L11.188,17H4.031ZM3.75,19h7.594l9.625,22.188Zm9.75,0h23L25,45.5Zm25.125,0H46.25L29.031,41.188Z" transform="translate(-0.375 -2.969)" fill="#45b0ff"/>
</svg>
