<svg xmlns="http://www.w3.org/2000/svg" width="149.208" height="29.368" viewBox="0 0 149.208 29.368">
  <g id="Group_126" data-name="Group 126" transform="translate(-61.792 -45.316)">
    <path id="Path_83" data-name="Path 83" d="M45.6-38.64H48.75v-10.7h6.572v10.7h3.155V-66.807H55.323V-52.5H48.75V-66.807H45.6ZM75.527-66.807H72.373v21.82a3.454,3.454,0,0,1-3.568,3.793c-2.141,0-3.53-1.5-3.53-3.793v-21.82H62.12v21.82c0,4.169,2.629,6.948,6.685,6.948s6.722-2.779,6.722-6.948Zm13.9,0v19.942L81.837-66.807H79.17V-38.64h3V-58.582L89.761-38.64h2.666V-66.807ZM98.436-38.64h3.155V-63.652h4.732v-3.155H93.7v3.155h4.732Zm20.505-28.167H107.562V-38.64h11.379V-41.8h-8.225v-9.464h7.211v-3.155h-7.211v-9.239h8.225ZM134.3-56.442v-3.906c0-3.868-2.479-6.46-6.234-6.46H121.12V-38.64h3.155v-11.3h3.793a2.869,2.869,0,0,1,3.08,3.042v8.262H134.3V-46.9a4.874,4.874,0,0,0-2.291-4.319A6.408,6.408,0,0,0,134.3-56.442ZM128.068-53.1h-3.793V-63.652h3.793a3,3,0,0,1,3.08,3.3v3.906A3.032,3.032,0,0,1,128.068-53.1Zm15.21,15.06c4.056,0,6.722-2.779,6.722-6.948V-47.2c0-4.169-2.666-6.948-6.722-6.948a3.473,3.473,0,0,1-3.568-3.793V-60.46a3.454,3.454,0,0,1,3.568-3.793,3.474,3.474,0,0,1,3.568,3.793v1.014H150V-60.46c0-4.169-2.666-6.948-6.722-6.948s-6.722,2.779-6.722,6.948v2.516c0,4.169,2.666,6.948,6.722,6.948a3.474,3.474,0,0,1,3.568,3.793v2.216a3.474,3.474,0,0,1-3.568,3.793,3.454,3.454,0,0,1-3.568-3.793V-46h-3.155v1.014C136.555-40.819,139.222-38.04,143.278-38.04Z" transform="translate(61 112.724)" fill="#0e0b58"/>
    <path id="Path_84" data-name="Path 84" d="M.792-38.378H3.346a6.525,6.525,0,0,0,6.948-6.948V-66.807H5.224v21.482a1.736,1.736,0,0,1-1.878,1.878H.792Zm18.665.338A6.525,6.525,0,0,0,26.4-44.987V-60.46a6.525,6.525,0,0,0-6.948-6.948,6.525,6.525,0,0,0-6.948,6.948v15.473A6.525,6.525,0,0,0,19.457-38.04Zm0-5.07a1.736,1.736,0,0,1-1.878-1.878V-60.46a1.736,1.736,0,0,1,1.878-1.878,1.736,1.736,0,0,1,1.878,1.878v15.473A1.736,1.736,0,0,1,19.457-43.11Zm22.12-9.577a7.451,7.451,0,0,0,1.164-4.169v-3a6.525,6.525,0,0,0-6.948-6.948H28.846V-38.64h7.323a6.525,6.525,0,0,0,6.948-6.948v-2.441A7.235,7.235,0,0,0,41.577-52.686Zm-7.661-9.051h1.878a1.736,1.736,0,0,1,1.878,1.878v3a1.736,1.736,0,0,1-1.878,1.878H33.916Zm4.131,16.149a1.736,1.736,0,0,1-1.878,1.878H33.916v-6.2h2.253a1.736,1.736,0,0,1,1.878,1.878ZM45.6-38.64v0Z" transform="translate(61 112.724)" fill="#45b0ff"/>
  </g>
</svg>
