<svg xmlns="http://www.w3.org/2000/svg" width="35.996" height="48.004" viewBox="0 0 35.996 48.004">
  <path id="Path_63" data-name="Path 63" d="M27.258,1.008a3.091,3.091,0,0,0-1.281.172,6,6,0,0,0-2.3,1.5,5.967,5.967,0,0,0-1.5,2.3,2.342,2.342,0,0,0,.379,2.469,7.359,7.359,0,0,1,1.781,2.8.445.445,0,0,0-.074.074l-10.906,11.9a.014.014,0,0,0-.008,0,1.008,1.008,0,0,0-.34.559l-3.863,9.66a1,1,0,0,0-.156.77,1.009,1.009,0,0,0,.453.645L16,40.414v2.617a15.435,15.435,0,0,0-6.371,1.555,9.793,9.793,0,0,0-1.77,1.148c-.2.168-.348.313-.461.426-.055.059-.1.109-.141.164a.843.843,0,0,0-.078.1c-.012.023-.031.047-.062.105-.012.027-.031.059-.055.121-.008.031-.035.121-.035.121S7,47,7,47v1a1,1,0,0,0,1,1H26a1,1,0,0,0,1-1V47a1.024,1.024,0,0,0-.238-.652,8.864,8.864,0,0,0-2.387-1.734A15.389,15.389,0,0,0,18,43.031v-2.5l5.555-3.7A1.014,1.014,0,0,0,24,36.055a1,1,0,0,0-.359-.82l-5.328-4.441,4.457-7.137a1.012,1.012,0,0,0,.23-.812V15a.958.958,0,0,0-.043-.3l1.883-2.047c.043.426.086.855.113,1.3.145,2.348.133,4.961,2.133,6.961a.846.846,0,0,0,.172.141c1.313,1.152,3.258,1.152,5.188.508a16.325,16.325,0,0,0,6.117-4,16.325,16.325,0,0,0,4-6.117c.641-1.922.645-3.855-.488-5.164a.976.976,0,0,0-.152-.184s0-.008-.008-.012a.069.069,0,0,0-.02-.016s0,0,0-.008-.008,0-.012-.008l-.062-.047a3.208,3.208,0,0,0-.484-.383C39.164,3.977,36.8,4.039,34.77,4c-2.207-.043-4.109-.148-6.316-2.43A1.871,1.871,0,0,0,27.258,1.008Zm-.242,1.953A10.031,10.031,0,0,0,34.73,6c.152,0,.285.008.434.008a15.889,15.889,0,0,0-2.3,1.375s-.008,0-.012.008a.926.926,0,0,0-.3.23s0,0,0,0a19.819,19.819,0,0,0-2.105,1.813,19.5,19.5,0,0,0-1.871,2.184,1.237,1.237,0,0,0-.109.133,16.186,16.186,0,0,0-1.484,2.48c-.008-.137-.016-.258-.023-.4-.148-2.422-.5-5.32-2.98-7.8.074.07-.027-.012.109-.422A4.2,4.2,0,0,1,25.09,4.09a4.307,4.307,0,0,1,1.52-1.016C27.027,2.934,27.094,3.043,27.016,2.961ZM38.809,7.008a2.472,2.472,0,0,1,1.438.3c.086.07.176.133.27.211.531.551.688,1.684.152,3.3a14.474,14.474,0,0,1-3.523,5.332,14.474,14.474,0,0,1-5.332,3.523c-1.629.539-2.77.375-3.312-.168s-.707-1.684-.168-3.312a11.486,11.486,0,0,1,1.047-2.168A4,4,0,0,0,35.02,8.379a11.22,11.22,0,0,1,2.168-1.043A5.843,5.843,0,0,1,38.809,7.008ZM33.348,9.531a1.994,1.994,0,1,1-2.816,2.816,16.756,16.756,0,0,1,2.816-2.816ZM21,16.844V22H16.273ZM14.676,24H20.2l-3.84,6.145L11.688,31.48Zm2.09,8.105,4.566,3.8-4.207,2.8L11.906,33.5Zm.1,12.9a1.068,1.068,0,0,0,.273,0,13.758,13.758,0,0,1,6.316,1.383A2.971,2.971,0,0,1,24.32,47H9.563a6.7,6.7,0,0,1,.98-.637A13.916,13.916,0,0,1,16.863,45Z" transform="translate(-7 -0.996)" fill="#45b0ff"/>
</svg>
