<svg xmlns="http://www.w3.org/2000/svg" width="46" height="38" viewBox="0 0 46 38">
  <path id="Path_64" data-name="Path 64" d="M4.4,6A2.359,2.359,0,0,0,2,8.475V33.527A2.358,2.358,0,0,0,4.4,36H30.795l-.432-2H4.4c-.129,0-.4,0-.4-.475V8.475C4,8,4.271,8,4.4,8H41.6c.13,0,.4,0,.4.475v2.291a11.434,11.434,0,0,1,2,2.5V8.475A2.359,2.359,0,0,0,41.6,6ZM40.02,12a1,1,0,0,0-.66.232,11.155,11.155,0,0,0-3.32,7.262,14.565,14.565,0,0,0-1.447-1.3,1,1,0,0,0-1.551.523A25.629,25.629,0,0,0,32,25a11.994,11.994,0,0,0,1.457,6H33a1,1,0,0,0-.977,1.211L34.137,42H2v2H48V42H45.863l2.113-9.789A1,1,0,0,0,47,31h-.334l0,0A13.813,13.813,0,0,0,48,24.5a23.908,23.908,0,0,0-1.051-6.816,1,1,0,0,0-1.523-.5s-.669.463-1.607,1.256a11.416,11.416,0,0,0-3.16-6.189A1,1,0,0,0,40.02,12Zm-.031,2.578a8.244,8.244,0,0,1,2,5.574A21.343,21.343,0,0,0,39.1,23.715,16.12,16.12,0,0,0,38,21.879V20.5C38,17.036,39.249,15.387,39.988,14.578ZM21,16v8.875l2.117-2.125L24.412,26l1.176-.5-1.412-3.25L27,22Zm24.43,3.793A19.83,19.83,0,0,1,46,24.5,11,11,0,0,1,44.408,31H38.961a13.038,13.038,0,0,1,.953-4.594A18.669,18.669,0,0,1,45.43,19.793ZM34.563,20.908a14.156,14.156,0,0,1,1.557,1.748,1,1,0,0,0,.223.277A13.106,13.106,0,0,1,37.93,26a15.8,15.8,0,0,0-.986,5H35.887A9.349,9.349,0,0,1,34,25,19.116,19.116,0,0,1,34.563,20.908ZM34.238,33H44.75a1,1,0,0,0,.465,0h.547l-1.943,9H36.182ZM14,38v2H31.658l-.432-2Z" transform="translate(-2 -6)" fill="#45b0ff"/>
</svg>
